# Blender v2.93.0 OBJ File: ''
# www.blender.org
o HydrogenParticle_Icosphere
v -2.631228 -1.805573 0.000000
v -1.324715 -0.807479 0.949226
v -3.130261 -0.807479 1.535893
v -4.246177 -0.807479 0.000000
v -3.130261 -0.807479 -1.535893
v -1.324715 -0.807479 -0.949226
v -2.132195 0.807479 1.535893
v -3.937740 0.807479 0.949226
v -3.937740 0.807479 -0.949226
v -2.132195 0.807479 -1.535893
v -1.016278 0.807479 0.000000
v -2.631228 1.805573 0.000000
v 2.664355 -1.805573 0.000000
v 1.357842 -0.807479 0.949226
v 3.163388 -0.807479 1.535893
v 4.279305 -0.807479 0.000000
v 3.163388 -0.807479 -1.535893
v 1.357842 -0.807479 -0.949226
v 2.165322 0.807479 1.535893
v 3.970868 0.807479 0.949226
v 3.970868 0.807479 -0.949226
v 2.165322 0.807479 -1.535893
v 1.049405 0.807479 0.000000
v 2.664355 1.805573 0.000000
v -1.338631 -0.000000 -0.177352
v 1.338631 -0.000000 -0.177352
v -1.338631 -0.153591 -0.088676
v 1.338631 -0.153591 -0.088676
v -1.338631 -0.153591 0.088676
v 1.338631 -0.153591 0.088676
v -1.338631 0.000000 0.177352
v 1.338631 0.000000 0.177352
v -1.338631 0.153591 0.088676
v 1.338631 0.153591 0.088676
v -1.338631 0.153591 -0.088676
v 1.338631 0.153591 -0.088676
vt 1.000000 0.500000
vt 1.000000 1.000000
vt 0.833333 1.000000
vt 0.833333 0.500000
vt 0.666667 1.000000
vt 0.666667 0.500000
vt 0.500000 1.000000
vt 0.500000 0.500000
vt 0.333333 1.000000
vt 0.333333 0.500000
vt 1.321967 0.363371
vt 1.202323 0.432447
vt 1.082679 0.363371
vt 1.082679 0.225218
vt 1.202323 0.156141
vt 1.321967 0.225218
vt 0.166667 1.000000
vt 0.166667 0.500000
vt -0.000000 1.000000
vt -0.000000 0.500000
vt 1.197862 0.937722
vt 1.333130 0.859626
vt 1.333130 0.703433
vt 1.197862 0.625336
vt 1.062595 0.703433
vt 1.062595 0.859626
vt 0.181819 0.000000
vt 0.272728 0.157461
vt 0.090910 0.157461
vt 0.363637 0.000000
vt 0.454546 0.157461
vt 0.909091 0.000000
vt 1.000000 0.157461
vt 0.818182 0.157461
vt 0.727273 0.000000
vt 0.636364 0.157461
vt 0.545455 0.000000
vt 0.363637 0.314921
vt 0.181819 0.314921
vt 0.909091 0.314921
vt 0.727273 0.314921
vt 0.545455 0.314921
vt 0.000000 0.314921
vt 0.272728 0.472382
vt 0.090910 0.472382
vt 0.818182 0.472382
vt 0.636364 0.472382
vt 0.454546 0.472382
vt 0.181819 0.000000
vt 0.090910 0.157461
vt 0.272728 0.157461
vt 0.454546 0.157461
vt 0.363637 0.000000
vt 0.909091 0.000000
vt 0.818182 0.157461
vt 1.000000 0.157461
vt 0.727273 0.000000
vt 0.636364 0.157461
vt 0.545455 0.000000
vt 0.363637 0.314921
vt 0.181819 0.314921
vt 0.909091 0.314921
vt 0.727273 0.314921
vt 0.545455 0.314921
vt 0.000000 0.314921
vt 0.272728 0.472382
vt 0.090910 0.472382
vt 0.818182 0.472382
vt 0.636364 0.472382
vt 0.454546 0.472382
vn -0.6100 0.0000 -0.7924
vn 0.6100 0.0000 -0.7924
vn 0.6100 -0.6862 -0.3962
vn -0.6100 -0.6862 -0.3962
vn 0.6100 -0.6862 0.3962
vn -0.6100 -0.6862 0.3962
vn 0.6100 0.0000 0.7924
vn -0.6100 0.0000 0.7924
vn 0.6100 0.6862 0.3962
vn -0.6100 0.6862 0.3962
vn 0.6100 0.6862 -0.3962
vn -0.6100 0.6862 -0.3962
vn 0.0000 -1.0000 0.0000
vn 0.7236 -0.4472 0.5257
vn -0.2764 -0.4472 0.8506
vn 0.7236 -0.4472 -0.5257
vn -0.8944 -0.4472 0.0000
vn -0.2764 -0.4472 -0.8506
vn 0.8944 0.4472 0.0000
vn 0.2764 0.4472 0.8506
vn -0.7236 0.4472 0.5257
vn -0.7236 0.4472 -0.5257
vn 0.2764 0.4472 -0.8506
vn 0.0000 1.0000 0.0000
vn 0.2764 -0.4472 0.8506
vn -0.7236 -0.4472 0.5257
vn -0.7236 -0.4472 -0.5257
vn 0.8944 -0.4472 0.0000
vn 0.2764 -0.4472 -0.8506
vn -0.8944 0.4472 0.0000
vn -0.2764 0.4472 0.8506
vn 0.7236 0.4472 0.5257
vn 0.7236 0.4472 -0.5257
vn -0.2764 0.4472 -0.8506
s 1
f 25/1/1 26/2/2 28/3/3 27/4/4
f 27/4/4 28/3/3 30/5/5 29/6/6
f 29/6/6 30/5/5 32/7/7 31/8/8
f 31/8/8 32/7/7 34/9/9 33/10/10
f 28/11/3 26/12/2 36/13/11 34/14/9 32/15/7 30/16/5
f 33/10/10 34/9/9 36/17/11 35/18/12
f 35/18/12 36/17/11 26/19/2 25/20/1
f 25/21/1 27/22/4 29/23/6 31/24/8 33/25/10 35/26/12
f 1/27/13 2/28/14 3/29/15
f 2/28/14 1/30/13 6/31/16
f 1/32/13 3/33/15 4/34/17
f 1/35/13 4/34/17 5/36/18
f 1/37/13 5/36/18 6/31/16
f 2/28/14 6/31/16 11/38/19
f 3/29/15 2/28/14 7/39/20
f 4/34/17 3/33/15 8/40/21
f 5/36/18 4/34/17 9/41/22
f 6/31/16 5/36/18 10/42/23
f 2/28/14 11/38/19 7/39/20
f 3/29/15 7/39/20 8/43/21
f 4/34/17 8/40/21 9/41/22
f 5/36/18 9/41/22 10/42/23
f 6/31/16 10/42/23 11/38/19
f 7/39/20 11/38/19 12/44/24
f 8/43/21 7/39/20 12/45/24
f 9/41/22 8/40/21 12/46/24
f 10/42/23 9/41/22 12/47/24
f 11/38/19 10/42/23 12/48/24
f 13/49/13 15/50/25 14/51/26
f 14/51/26 18/52/27 13/53/13
f 13/54/13 16/55/28 15/56/25
f 13/57/13 17/58/29 16/55/28
f 13/59/13 18/52/27 17/58/29
f 14/51/26 23/60/30 18/52/27
f 15/50/25 19/61/31 14/51/26
f 16/55/28 20/62/32 15/56/25
f 17/58/29 21/63/33 16/55/28
f 18/52/27 22/64/34 17/58/29
f 14/51/26 19/61/31 23/60/30
f 15/50/25 20/65/32 19/61/31
f 16/55/28 21/63/33 20/62/32
f 17/58/29 22/64/34 21/63/33
f 18/52/27 23/60/30 22/64/34
f 19/61/31 24/66/24 23/60/30
f 20/65/32 24/67/24 19/61/31
f 21/63/33 24/68/24 20/62/32
f 22/64/34 24/69/24 21/63/33
f 23/60/30 24/70/24 22/64/34
