# Blender v2.93.0 OBJ File: 'CloudParticleSystem.blend'
# www.blender.org
o Ice_Cube.001
v -1.000000 -1.000000 0.872488
v -0.943978 -1.000000 1.000000
v -1.000000 0.637147 -0.493165
v -0.099573 1.000000 -0.417707
v -0.692858 -0.118186 1.000000
v -1.000000 0.338939 0.004612
v 1.000000 1.000000 0.230637
v -0.398722 0.015112 1.000000
v 0.841855 1.000000 0.294449
v 0.808970 0.829524 -1.000000
v 0.901721 1.000000 -0.828909
v 1.000000 1.000000 -0.559278
v -0.668567 -1.000000 1.000000
v -0.082554 -0.597888 1.000000
v 1.000000 -0.201041 0.480593
v 1.000000 -0.428387 0.139290
v 0.698518 -1.000000 -0.408280
v -1.000000 0.263689 -0.951414
v -1.000000 -1.000000 0.053050
v -0.968722 0.234561 -1.000000
v 0.625900 -0.197461 -1.000000
v 0.608899 -1.000000 -0.654152
v -0.837400 -0.144359 -1.000000
v -0.700578 -1.000000 -0.633690
vt 0.232852 0.391833
vt 0.426458 0.497165
vt 0.078568 0.508579
vt 0.066531 0.478896
vt 0.146850 0.289846
vt 0.255212 0.340949
vt 0.054286 0.414595
vt 0.597310 0.276365
vt 0.562052 0.501255
vt 0.414586 0.134258
vt 0.597310 0.009204
vt 0.409805 0.106191
vt 0.526536 0.012046
vt 0.186505 0.025906
vt 0.237481 0.104363
vt 0.453834 0.768146
vt 0.460985 0.849730
vt 0.124015 0.855606
vt 0.186033 0.691421
vt 0.000148 0.000148
vt 0.717372 0.689867
vt 0.892205 0.508876
vt 0.937823 0.530029
vt 0.937823 0.906095
vt 0.896366 0.941604
vt 0.871492 0.929633
vt 0.775060 0.812295
vt 0.569445 0.949085
vt 0.465486 0.900132
vt 0.476338 0.783571
vt 0.086271 0.882244
vt 0.465189 0.862122
vt 0.441932 0.979385
vt 0.246089 0.999851
vt 0.476117 0.770849
vt 0.539340 0.723724
vt 0.465189 0.574988
vt 0.204749 0.531572
vt 0.027000 0.871358
vt 0.000148 0.564687
vt 0.159287 0.508876
vn -0.8859 0.2523 0.3892
vn 0.0000 0.0000 1.0000
vn -0.3623 0.7995 0.4790
vn 0.0000 1.0000 0.0000
vn 1.0000 -0.0000 0.0000
vn 0.0000 0.0000 -1.0000
vn 0.3674 0.1895 0.9105
vn 0.4959 -0.7227 0.4814
vn 0.0000 -1.0000 -0.0000
vn -1.0000 -0.0000 0.0000
vn -0.2511 0.7503 -0.6115
vn -0.8736 -0.3028 -0.3809
vn -0.0144 -0.3955 -0.9184
vn 0.9266 -0.1652 -0.3378
s off
f 5/1/1 6/2/1 1/3/1 2/4/1
f 14/5/2 8/6/2 5/1/2 2/4/2 13/7/2
f 4/8/3 3/9/3 6/2/3 5/1/3 8/6/3 9/10/3
f 11/11/4 4/8/4 9/10/4 7/12/4 12/13/4
f 16/14/5 12/13/5 7/12/5 15/15/5
f 23/16/6 20/17/6 10/18/6 21/19/6
f 9/10/7 8/6/7 14/5/7 15/15/7 7/12/7
f 15/15/8 14/5/8 13/7/8 17/20/8 16/14/8
f 24/21/9 22/22/9 17/23/9 13/24/9 2/25/9 1/26/9 19/27/9
f 1/26/10 6/28/10 3/29/10 18/30/10 19/27/10
f 11/31/11 10/18/11 20/17/11 18/32/11 3/33/11 4/34/11
f 19/27/12 18/30/12 20/35/12 23/36/12 24/21/12
f 24/37/13 23/16/13 21/19/13 22/38/13
f 10/18/14 11/31/14 12/39/14 16/40/14 17/41/14 22/38/14 21/19/14
