# Blender v2.93.0 OBJ File: 'CloudParticleSystem.blend'
# www.blender.org
o Rock_Particle_Icosphere.002
v 0.000000 -0.944238 0.000000
v 0.583058 -0.360359 0.423612
v -0.221989 -0.359193 0.683216
v -0.848656 -0.424331 0.000000
v -0.239127 -0.386925 -0.735964
v 0.546837 -0.337974 -0.397296
v 0.138200 0.223611 0.425328
v -0.829015 0.512363 0.602307
v -0.908664 0.561586 -0.660174
v 0.366729 0.593405 -1.128705
v 1.144829 0.572413 0.000000
v 0.000000 0.944238 0.000000
v -0.179482 -0.939813 0.552400
v 0.389027 -0.778060 0.282641
v 0.249719 -0.499437 0.768540
v 0.712764 -0.440521 0.000000
v 0.486627 -0.973267 -0.353551
v -0.472395 -0.764352 0.000000
v -0.662315 -0.505969 0.481198
v -0.153547 -0.804004 -0.472576
v -0.780175 -0.596007 -0.566829
v 0.194780 -0.389560 -0.599457
v 0.581987 0.000000 0.189100
v 0.946881 0.000000 -0.307656
v 0.000000 0.000000 0.944238
v 0.573968 0.000000 0.789998
v -0.757060 0.000000 0.245982
v -0.545978 0.000000 0.751471
v -0.402311 0.000000 -0.553721
v -0.858375 0.000000 -0.278900
v 0.467964 0.000000 -0.644088
v 0.000000 0.000000 -0.944238
v 0.685078 0.523359 0.497736
v -0.253267 0.506534 0.779460
v -0.803096 0.496348 0.000000
v -0.294749 0.589498 -0.907128
v 0.690265 0.527322 -0.501505
v 0.112040 0.586659 0.344826
v 0.457402 0.740092 0.000000
v -0.561682 1.123383 0.408081
v -0.466235 0.932482 -0.338736
v 0.168692 0.883312 -0.519190
vt 0.105946 0.263171
vt 0.196659 0.288773
vt 0.115473 0.358784
vt 0.291829 0.316400
vt 0.284576 0.209503
vt 0.001962 0.301771
vt 0.045705 0.167390
vt 0.163689 0.194662
vt 0.386585 0.277891
vt 0.139510 0.472230
vt 0.222084 0.397133
vt 0.249817 0.525414
vt 0.845477 0.097808
vt 0.786729 0.001962
vt 0.917237 0.017934
vt 0.847731 0.297420
vt 0.840448 0.193512
vt 0.946747 0.263253
vt 0.238628 0.108941
vt 0.143265 0.070428
vt 0.241943 0.001962
vt 0.353419 0.421761
vt 0.432647 0.927844
vt 0.391350 0.805802
vt 0.523423 0.852417
vt 0.946747 0.138943
vt 0.914504 0.389933
vt 0.184336 0.572559
vt 0.284537 0.602246
vt 0.190838 0.686612
vt 0.095043 0.990872
vt 0.136988 0.857448
vt 0.185708 0.980806
vt 0.600082 0.769712
vt 0.503683 0.731577
vt 0.609341 0.679919
vt 0.560000 0.324569
vt 0.473936 0.422027
vt 0.449201 0.259145
vt 0.621556 0.126482
vt 0.594771 0.225281
vt 0.513939 0.125156
vt 0.199721 0.781264
vt 0.310056 0.743773
vt 0.265281 0.882962
vt 0.437649 0.009564
vt 0.390509 0.127031
vt 0.587902 0.001962
vt 0.723732 0.602285
vt 0.589554 0.555388
vt 0.723732 0.762050
vt 0.472612 0.604541
vt 0.390509 0.654514
vt 0.310056 0.998038
vt 0.736676 0.043689
vt 0.736676 0.190860
vt 0.708360 0.330684
vt 0.621298 0.440588
vt 0.537795 0.551465
vt 0.651775 0.888063
vt 0.001962 0.872595
vt 0.066791 0.739235
vt 0.825694 0.483849
vt 0.785722 0.380180
vt 0.547376 0.992595
vt 0.386585 0.568635
vt 0.084509 0.616850
vt 0.740823 0.259447
vt 0.740600 0.127992
vt 0.018808 0.442233
vn 0.2475 -0.9448 0.2148
vn 0.5761 -0.7297 0.3682
vn 0.4045 -0.8472 0.3445
vn 0.7484 -0.4928 0.4438
vn 0.8024 -0.5100 0.3100
vn -0.3055 -0.9385 -0.1610
vn -0.5341 -0.8453 0.0147
vn -0.5144 -0.8575 0.0024
vn -0.2862 -0.9441 -0.1638
vn -0.2123 -0.9535 -0.2140
vn 0.9878 0.0870 0.1293
vn 0.8877 0.0681 0.4553
vn 0.9207 -0.1735 0.3495
vn -0.2880 -0.3501 0.8914
vn -0.2625 -0.3318 0.9061
vn -0.2927 -0.4371 0.8504
vn -0.9892 -0.0011 0.1462
vn -0.9278 -0.0003 0.3730
vn -0.9670 -0.0654 0.2464
vn -0.5379 0.1627 -0.8271
vn -0.4377 0.2962 -0.8489
vn -0.5390 -0.1082 -0.8353
vn 0.5587 -0.4069 -0.7227
vn 0.3557 -0.4006 -0.8444
vn 0.5837 -0.3501 -0.7326
vn 0.9936 -0.1119 0.0133
vn -0.2830 -0.4192 0.8627
vn -0.9936 0.0095 0.1126
vn -0.5750 -0.1358 -0.8068
vn 0.6630 -0.2140 -0.7174
vn -0.3083 0.3487 0.8851
vn -0.3323 0.4000 0.8541
vn -0.2328 0.1945 0.9529
vn -0.2802 0.2755 0.9196
vn -0.2984 0.2170 0.9294
vn -0.2664 0.3959 0.8788
vn -0.7056 0.6852 0.1805
vn -0.9664 0.2549 0.0335
vn -0.8032 0.5947 -0.0330
vn -0.1613 0.8699 -0.4661
vn -0.1697 0.8376 -0.5193
vn 0.2331 0.9379 -0.2570
vn 0.2268 0.9300 -0.2892
vn 0.4502 0.8702 -0.2003
vn 0.4081 0.9047 -0.1222
vn 0.2014 0.9739 -0.1042
vn 0.5568 0.8057 -0.2023
vn -0.0408 0.9267 -0.3737
vn -0.2592 0.7903 -0.5551
vn 0.1415 0.9633 -0.2282
vn -0.8892 0.4349 -0.1421
vn -0.9968 0.0193 0.0780
vn 0.5564 0.6353 0.5356
vn 0.4741 0.6474 0.5968
vn 0.4705 0.6845 0.5569
vn 0.6685 0.5017 0.5490
vn 0.7549 0.3515 0.5537
vn 0.1787 0.8736 0.4526
vn 0.1270 0.9294 0.3466
vn 0.2261 0.9267 0.3001
vn 0.7514 -0.0602 -0.6571
vn 0.7317 0.1087 -0.6729
vn 0.8537 -0.2342 -0.4651
vn -0.4225 -0.2887 -0.8591
vn -0.3156 -0.0984 -0.9438
vn -0.3695 -0.4836 -0.7935
vn -0.9869 0.0201 0.1598
vn -0.3105 0.1274 0.9420
vn -0.3297 0.1389 0.9338
vn 0.7496 0.5115 0.4201
vn -0.3821 0.5111 0.7699
vn 0.9796 -0.2007 0.0131
vn 0.6820 -0.4918 0.5413
vn 0.6709 -0.4703 0.5734
vn 0.4098 -0.5088 -0.7571
vn 0.4639 -0.5115 -0.7233
vn 0.1496 -0.5362 -0.8307
vn -0.4371 -0.5317 -0.7254
vn -0.4877 0.3270 -0.8094
vn -0.9919 -0.0846 -0.0942
vn -0.9052 -0.1942 0.3780
vn -0.3077 -0.3135 0.8984
vn 0.1124 0.9013 0.4183
vn 0.2540 -0.2055 0.9451
vn 0.6288 -0.5807 0.5171
vn 0.7178 -0.4874 0.4972
vn 0.7599 -0.3332 0.5582
vn 0.6367 -0.6394 -0.4310
vn 0.2696 -0.2563 -0.9282
vn 0.0874 -0.4565 -0.8854
vn -0.0533 -0.5410 -0.8393
vn -0.4883 -0.8727 0.0060
vn -0.6641 -0.7349 0.1376
vn -0.6692 -0.7318 0.1288
vn -0.2909 -0.2305 0.9286
vn 0.9059 -0.1139 -0.4078
vn 0.7997 -0.5285 0.2848
vn 0.1717 -0.9341 0.3130
s 1
f 1/1/1 14/2/2 13/3/3
f 2/4/4 14/2/2 16/5/5
f 1/1/6 13/3/7 18/6/8
f 1/1/6 18/6/8 20/7/9
f 1/1/6 20/7/9 17/8/10
f 2/4/11 16/5/12 23/9/13
f 3/10/14 15/11/15 25/12/16
f 4/13/17 19/14/18 27/15/19
f 5/16/20 21/17/21 29/18/22
f 6/19/23 22/20/24 31/21/25
f 2/4/11 23/9/13 26/22/26
f 3/23/14 25/24/16 28/25/27
f 4/13/17 27/15/19 30/26/28
f 5/16/20 29/18/22 32/27/29
f 6/28/23 31/29/25 24/30/30
f 7/31/31 33/32/32 38/33/33
f 8/34/34 34/35/35 40/36/36
f 9/37/37 35/38/38 41/39/39
f 10/40/40 36/41/41 42/42/42
f 11/43/43 37/44/44 39/45/45
f 39/46/45 42/42/42 12/47/46
f 39/46/45 37/48/44 42/42/42
f 37/48/44 10/40/47 42/42/42
f 42/42/42 41/39/48 12/47/46
f 42/42/42 36/41/41 41/39/48
f 36/41/41 9/37/49 41/39/48
f 41/49/48 40/36/50 12/50/46
f 41/49/39 35/51/38 40/36/51
f 35/51/38 8/34/52 40/36/51
f 40/36/53 38/52/54 12/50/55
f 40/36/53 34/35/56 38/52/54
f 34/35/56 7/53/57 38/52/54
f 38/33/54 39/45/58 12/54/55
f 38/33/54 33/32/59 39/45/58
f 33/32/59 11/43/60 39/45/58
f 24/30/30 37/44/61 11/43/62
f 24/30/30 31/29/25 37/44/61
f 31/55/25 10/40/63 37/48/61
f 32/56/29 36/41/64 10/40/65
f 32/56/29 29/57/22 36/41/64
f 29/57/22 9/37/66 36/41/64
f 30/58/28 35/38/38 9/37/67
f 30/58/28 27/59/19 35/38/38
f 27/60/19 8/34/52 35/51/38
f 28/25/68 34/35/35 8/34/34
f 28/25/68 25/24/69 34/35/35
f 25/24/70 7/53/57 34/35/56
f 26/61/71 33/32/32 7/31/31
f 26/61/26 23/62/13 33/32/72
f 23/62/13 11/43/73 33/32/74
f 31/55/25 32/56/75 10/40/76
f 31/63/25 22/64/24 32/27/75
f 22/64/24 5/16/77 32/27/75
f 29/57/22 30/58/78 9/37/66
f 29/18/22 21/17/21 30/26/79
f 21/17/80 4/13/17 30/26/28
f 27/60/19 28/25/81 8/34/52
f 27/60/19 19/65/18 28/25/81
f 19/65/82 3/23/14 28/25/27
f 25/12/83 26/22/83 7/66/83
f 25/12/84 15/11/84 26/22/84
f 15/11/85 2/4/4 26/22/86
f 23/62/13 24/30/87 11/43/73
f 23/62/13 16/67/12 24/30/87
f 16/67/88 6/28/23 24/30/30
f 17/8/89 22/20/24 6/19/23
f 17/8/89 20/7/90 22/20/24
f 20/68/90 5/16/77 22/64/24
f 20/68/90 21/17/91 5/16/77
f 20/68/9 18/69/8 21/17/92
f 18/69/8 4/13/93 21/17/92
f 18/69/8 19/14/94 4/13/93
f 18/6/8 13/3/7 19/70/94
f 13/3/95 3/10/14 19/70/82
f 16/5/96 17/8/96 6/19/96
f 16/5/5 14/2/2 17/8/97
f 14/2/2 1/1/1 17/8/98
f 13/3/95 15/11/15 3/10/14
f 13/3/3 14/2/2 15/11/85
f 14/2/2 2/4/4 15/11/85
