{
    "asset" : {
        "generator" : "Khronos glTF Blender I/O v1.6.16",
        "version" : "2.0"
    },
    "scene" : 0,
    "scenes" : [
        {
            "name" : "Scene",
            "nodes" : [
                0,
                1
            ]
        }
    ],
    "nodes" : [
        {
            "mesh" : 0,
            "name" : "Warpgate_Main"
        },
        {
            "mesh" : 1,
            "name" : "Warpgate_second"
        }
    ],
    "meshes" : [
        {
            "name" : "Cylinder",
            "primitives" : [
                {
                    "attributes" : {
                        "POSITION" : 0,
                        "NORMAL" : 1,
                        "TEXCOORD_0" : 2
                    },
                    "indices" : 3
                }
            ]
        },
        {
            "name" : "Cylinder.002",
            "primitives" : [
                {
                    "attributes" : {
                        "POSITION" : 4,
                        "NORMAL" : 5,
                        "TEXCOORD_0" : 6
                    },
                    "indices" : 7
                }
            ]
        }
    ],
    "accessors" : [
        {
            "bufferView" : 0,
            "componentType" : 5126,
            "count" : 522,
            "max" : [
                5.444334506988525,
                9.226158142089844,
                8.009822845458984
            ],
            "min" : [
                -5.444334506988525,
                -5.444334506988525,
                -3.401590585708618
            ],
            "type" : "VEC3"
        },
        {
            "bufferView" : 1,
            "componentType" : 5126,
            "count" : 522,
            "type" : "VEC3"
        },
        {
            "bufferView" : 2,
            "componentType" : 5126,
            "count" : 522,
            "type" : "VEC2"
        },
        {
            "bufferView" : 3,
            "componentType" : 5123,
            "count" : 1254,
            "type" : "SCALAR"
        },
        {
            "bufferView" : 4,
            "componentType" : 5126,
            "count" : 859,
            "max" : [
                4.098812103271484,
                4.098812103271484,
                2.7888455390930176
            ],
            "min" : [
                -4.098812103271484,
                -4.098812103271484,
                -1.960505723953247
            ],
            "type" : "VEC3"
        },
        {
            "bufferView" : 5,
            "componentType" : 5126,
            "count" : 859,
            "type" : "VEC3"
        },
        {
            "bufferView" : 6,
            "componentType" : 5126,
            "count" : 859,
            "type" : "VEC2"
        },
        {
            "bufferView" : 7,
            "componentType" : 5123,
            "count" : 960,
            "type" : "SCALAR"
        }
    ],
    "bufferViews" : [
        {
            "buffer" : 0,
            "byteLength" : 6264,
            "byteOffset" : 0
        },
        {
            "buffer" : 0,
            "byteLength" : 6264,
            "byteOffset" : 6264
        },
        {
            "buffer" : 0,
            "byteLength" : 4176,
            "byteOffset" : 12528
        },
        {
            "buffer" : 0,
            "byteLength" : 2508,
            "byteOffset" : 16704
        },
        {
            "buffer" : 0,
            "byteLength" : 10308,
            "byteOffset" : 19212
        },
        {
            "buffer" : 0,
            "byteLength" : 10308,
            "byteOffset" : 29520
        },
        {
            "buffer" : 0,
            "byteLength" : 6872,
            "byteOffset" : 39828
        },
        {
            "buffer" : 0,
            "byteLength" : 1920,
            "byteOffset" : 46700
        }
    ],
    "buffers" : [
        {
            "byteLength" : 48620,
            "uri" : "data:application/octet-stream;base64,"
        }
    ]
}
