# Blender v2.93.0 OBJ File: 'TruckShip.blend'
# www.blender.org
o PullingTrailer_Cylinder.001
v -4.092736 -0.844120 0.974435
v -4.092736 0.422183 0.974435
v -3.211615 -0.844120 0.251318
v -3.211615 0.422183 0.251318
v -2.206351 -0.844120 -0.286006
v -2.206351 0.422183 -0.286006
v -1.115577 -0.844120 -0.616889
v -1.115577 0.422183 -0.616889
v 0.018791 -0.844120 -0.728614
v 0.018791 0.422183 -0.728614
v 1.153158 -0.844120 -0.616889
v 1.153158 0.422183 -0.616889
v 2.243933 -0.844120 -0.286006
v 2.243933 0.422183 -0.286006
v 3.249196 -0.844120 0.251318
v 3.249196 0.422183 0.251318
v 4.130318 -0.844120 0.974436
v 4.130318 0.422183 0.974436
v -1.933936 0.422183 1.059485
v -1.933936 -0.844120 1.059485
v -2.816129 0.422183 1.531027
v -2.816129 -0.844120 1.531027
v 0.018791 0.422183 0.671063
v 0.018791 -0.844121 0.671063
v 1.014282 0.422183 0.769111
v 1.014282 -0.844121 0.769111
v 3.626960 0.422184 2.165616
v 3.626960 -0.844120 2.165616
v -3.589378 0.422183 2.165616
v -3.589378 -0.844120 2.165616
v 2.853710 0.422184 1.531027
v 2.853710 -0.844120 1.531027
v -0.976701 0.422184 0.769111
v -0.976701 -0.844121 0.769111
v 1.971517 0.422183 1.059485
v 1.971518 -0.844120 1.059485
v -0.001132 -0.606288 -0.268422
v -0.001132 0.184351 -0.268422
v -0.558288 -0.606288 -0.367818
v -0.558288 0.184351 -0.367818
v -1.030622 -0.606288 -0.650870
v -1.030622 0.184351 -0.650870
v -1.346225 -0.606288 -1.074486
v -1.346225 0.184351 -1.074486
v -1.457051 -0.606288 -1.574178
v -1.457051 0.184351 -1.574178
v 1.454784 -0.606288 -1.574178
v 1.454784 0.184351 -1.574178
v 1.343959 -0.606288 -1.074486
v 1.343959 0.184351 -1.074486
v 1.028356 -0.606288 -0.650869
v 1.028356 0.184351 -0.650869
v 0.556022 -0.606288 -0.367816
v 0.556022 0.184351 -0.367816
v -0.001133 -0.606288 -0.736506
v -0.001133 0.184351 -0.736506
v -0.361156 -0.606288 -0.800733
v -0.361156 0.184351 -0.800733
v -0.666369 -0.606288 -0.983635
v -0.666369 0.184351 -0.983635
v -0.870305 -0.606288 -1.257370
v -0.870305 0.184351 -1.257370
v -0.941918 -0.606288 -1.580261
v -0.941918 0.184351 -1.580261
v 0.939654 -0.606288 -1.580261
v 0.939654 0.184351 -1.580261
v 0.868040 -0.606288 -1.257369
v 0.868040 0.184351 -1.257369
v 0.664102 -0.606288 -0.983634
v 0.664102 0.184351 -0.983634
v 0.358890 -0.606288 -0.800732
v 0.358890 0.184351 -0.800732
v -1.382694 0.184351 -2.890758
v -1.382694 -0.606288 -2.890758
v 1.390578 0.184351 -2.893034
v 1.390578 -0.606288 -2.893034
v -0.867788 0.184351 -2.875771
v -0.867788 -0.606288 -2.875771
v 0.875852 0.184351 -2.873754
v 0.875852 -0.606288 -2.873754
v -1.354462 0.184351 -3.445545
v -1.354462 -0.606288 -3.445545
v 1.356595 0.184351 -3.447562
v 1.356595 -0.606288 -3.447562
v -0.839557 0.184351 -3.430558
v -0.839557 -0.606288 -3.430558
v 0.841868 0.184351 -3.428280
v 0.841868 -0.606288 -3.428280
v 4.297132 0.241281 1.285067
v 4.297132 -0.663218 1.285067
v 3.937592 0.241282 2.332431
v 3.937592 -0.663218 2.332431
v -4.264561 -0.630676 1.315949
v -4.264561 0.208739 1.315949
v -3.930892 -0.630676 2.337441
v -3.930892 0.208739 2.337441
v -1.415247 2.832448 -0.275346
v -1.767435 2.832448 -0.168512
v -1.370408 2.832448 -0.049920
v -1.679478 2.832447 0.043835
v 1.751173 2.760822 -0.154099
v 1.489589 2.760822 -0.233449
v 1.685845 2.760822 0.003620
v 1.456284 2.760822 -0.066016
vt 0.613173 0.385884
vt 0.701915 0.484471
vt 0.613173 0.484471
vt 0.238174 0.452139
vt 0.326917 0.550726
vt 0.238174 0.550726
vt 0.360496 0.706625
vt 0.449238 0.805213
vt 0.360496 0.805213
vt 0.449238 0.706625
vt 0.537981 0.805213
vt 0.543772 0.352305
vt 0.642359 0.263562
vt 0.642359 0.352305
vt 0.699602 0.616636
vt 0.610859 0.518049
vt 0.699602 0.518049
vt 0.246873 0.614636
vt 0.301229 0.625448
vt 0.293596 0.702951
vt 0.698668 0.044240
vt 0.797255 0.122118
vt 0.698668 0.122118
vt 0.016789 0.878393
vt 0.115376 0.800514
vt 0.115376 0.878393
vt 0.016789 0.800514
vt 0.115376 0.722636
vt 0.438374 0.385884
vt 0.360496 0.484471
vt 0.360496 0.385884
vt 0.691051 0.748802
vt 0.613173 0.650214
vt 0.691051 0.650214
vt 0.549830 0.385884
vt 0.471952 0.484471
vt 0.471952 0.385884
vt 0.701915 0.385884
vt 0.326917 0.452139
vt 0.537981 0.706625
vt 0.543772 0.263562
vt 0.610859 0.616636
vt 0.238174 0.702951
vt 0.296872 0.263562
vt 0.592107 0.959011
vt 0.583409 0.870695
vt 0.646463 0.948199
vt 0.592107 0.782380
vt 0.638830 0.870695
vt 0.360496 0.297293
vt 0.893888 0.182608
vt 0.839532 0.193420
vt 0.830833 0.105105
vt 0.886254 0.105105
vt 0.533024 0.983211
vt 0.348244 0.951959
vt 0.533024 0.927790
vt 0.646463 0.793192
vt 0.537981 0.894212
vt 0.348244 0.860319
vt 0.537981 0.838791
vt 0.148815 0.672429
vt 0.092638 0.603731
vt 0.138773 0.573022
vt 0.050943 0.525393
vt 0.025332 0.440426
vt 0.102183 0.504275
vt 0.016789 0.352096
vt 0.072210 0.352193
vt 0.025643 0.263796
vt 0.079980 0.274704
vt 0.051553 0.178920
vt 0.102718 0.200218
vt 0.093524 0.100729
vt 0.149943 0.032229
vt 0.189062 0.071487
vt 0.139551 0.131601
vt 0.188073 0.633310
vt 0.079707 0.429710
vt 0.797255 0.044240
vt 0.016789 0.722636
vt 0.438374 0.484471
vt 0.613173 0.748802
vt 0.549830 0.484471
vt 0.527271 0.175274
vt 0.502513 0.175097
vt 0.503047 0.196157
vt 0.849773 0.730574
vt 0.824237 0.730574
vt 0.824237 0.763687
vt 0.630122 0.228482
vt 0.665090 0.228869
vt 0.665028 0.199775
vt 0.238174 0.824845
vt 0.238174 0.850381
vt 0.265723 0.850381
vt 0.176503 0.847103
vt 0.176503 0.821566
vt 0.148955 0.821566
vt 0.272853 0.197252
vt 0.272872 0.170564
vt 0.238174 0.170339
vt 0.273085 0.225934
vt 0.238208 0.197435
vt 0.630185 0.143997
vt 0.630208 0.172790
vt 0.664996 0.172691
vt 0.824237 0.418997
vt 0.849773 0.418997
vt 0.849773 0.385884
vt 0.630228 0.199644
vt 0.273201 0.141831
vt 0.238261 0.141267
vt 0.176654 0.016789
vt 0.204596 0.044830
vt 0.680041 0.821966
vt 0.750461 0.782380
vt 0.750461 0.821966
vt 0.783171 0.016789
vt 0.891940 0.213399
vt 0.853114 0.221122
vt 0.583409 0.532133
vt 0.178573 0.689058
vt 0.148955 0.722636
vt 0.185693 0.787988
vt 0.148955 0.787988
vt 0.583409 0.666832
vt 0.583409 0.402501
vt 0.262431 0.584304
vt 0.298463 0.591472
vt 0.741168 0.884198
vt 0.741168 0.855544
vt 0.758976 0.857298
vt 0.758976 0.882444
vt 0.865674 0.263562
vt 0.675937 0.297455
vt 0.675937 0.279561
vt 0.386862 0.673047
vt 0.312528 0.824845
vt 0.312528 0.846127
vt 0.299301 0.844824
vt 0.299301 0.826147
vt 0.501553 0.667747
vt 0.201569 0.911971
vt 0.016789 0.943223
vt 0.016789 0.929932
vt 0.268219 0.263562
vt 0.360496 0.318575
vt 0.348244 0.965249
vt 0.348244 0.878213
vt 0.527781 0.196505
vt 0.849773 0.763687
vt 0.265723 0.824845
vt 0.148955 0.847103
vt 0.238238 0.226429
vt 0.665090 0.143650
vt 0.824237 0.385884
vt 0.680041 0.782380
vt 0.712752 0.016789
vt 0.583409 0.602552
vt 0.204596 0.663126
vt 0.185693 0.722636
vt 0.583409 0.732184
vt 0.583409 0.467853
vt 0.865674 0.318984
vt 0.412007 0.673047
vt 0.520230 0.667747
vt 0.201569 0.967392
vt 0.790658 0.484471
vt 0.788345 0.616636
vt 0.788345 0.518049
vt 0.797255 0.199997
vt 0.698668 0.199997
vt 0.768929 0.748802
vt 0.768929 0.650214
vt 0.790658 0.385884
vt 0.246873 0.791267
vt 0.301229 0.780455
vt 0.839532 0.016789
vt 0.893888 0.027601
vt 0.477330 0.174568
vt 0.451280 0.174220
vt 0.451793 0.195938
vt 0.477835 0.196154
vt 0.553655 0.174384
vt 0.824236 0.574859
vt 0.849773 0.574859
vt 0.849773 0.555229
vt 0.824236 0.555229
vt 0.849773 0.535600
vt 0.824236 0.535600
vt 0.849773 0.515971
vt 0.824236 0.515971
vt 0.849773 0.496342
vt 0.451437 0.229984
vt 0.549260 0.146661
vt 0.526765 0.147332
vt 0.553545 0.197977
vt 0.526656 0.224382
vt 0.503267 0.145727
vt 0.478376 0.143173
vt 0.824236 0.496342
vt 0.478230 0.227543
vt 0.548929 0.225414
vt 0.451640 0.140176
vt 0.503169 0.225500
vt 0.375266 0.173637
vt 0.349449 0.172145
vt 0.349331 0.195794
vt 0.400019 0.173994
vt 0.375774 0.194891
vt 0.425237 0.174002
vt 0.400552 0.195064
vt 0.425742 0.195591
vt 0.824237 0.653376
vt 0.849773 0.653375
vt 0.849773 0.633746
vt 0.824237 0.633746
vt 0.849773 0.614117
vt 0.824237 0.614117
vt 0.849773 0.594488
vt 0.824237 0.594488
vt 0.424699 0.226989
vt 0.399909 0.144650
vt 0.376302 0.222849
vt 0.399805 0.224440
vt 0.424848 0.142614
vt 0.376419 0.145750
vt 0.353799 0.223559
vt 0.354148 0.144675
vn -0.7546 0.0000 -0.6562
vn -0.5556 0.0000 -0.8315
vn -0.3542 0.0309 -0.9347
vn -0.1951 0.0000 -0.9808
vn -0.3827 0.0000 -0.9239
vn -0.2247 0.0309 -0.9739
vn 0.0000 0.0000 -1.0000
vn 0.1951 0.0000 -0.9808
vn 0.2243 0.0353 -0.9739
vn 0.3827 0.0000 -0.9239
vn 0.5556 0.0000 -0.8315
vn 0.7496 0.0000 -0.6619
vn 0.0000 1.0000 0.0000
vn -0.5707 0.0000 0.8212
vn -0.5556 0.0000 0.8315
vn -0.2230 0.1215 0.9672
vn 0.0000 0.0000 1.0000
vn -0.1951 0.0000 0.9808
vn 0.1951 0.0000 0.9808
vn 0.3541 0.1076 0.9290
vn 0.3827 0.0000 0.9239
vn 0.5556 0.0000 0.8315
vn 0.5631 0.0000 0.8264
vn -0.3827 0.0000 0.9239
vn 0.3545 0.0353 -0.9344
vn -0.2889 0.0990 -0.9522
vn 0.2884 0.1144 -0.9507
vn 0.2443 0.9642 0.1032
vn 0.1818 0.9811 0.0659
vn -0.9824 0.1554 -0.1033
vn -0.9782 0.1291 -0.1626
vn -0.9826 0.1575 -0.0985
vn -0.9629 0.1723 0.2076
vn -0.9212 0.2253 0.3173
vn -0.9664 0.1665 0.1957
vn 0.0000 -1.0000 0.0000
vn 0.2236 0.1158 0.9678
vn -0.3544 0.1126 0.9283
vn -0.9093 0.0000 0.4162
vn -0.6707 0.0000 0.7417
vn -0.9985 0.0000 0.0552
vn -0.9981 0.0000 0.0612
vn 0.0291 0.0000 -0.9996
vn -0.0374 0.0000 -0.9993
vn 0.9985 0.0000 -0.0549
vn 0.9981 0.0000 -0.0612
vn 0.9985 0.0000 0.0540
vn 0.9987 0.0000 0.0508
vn -0.9986 0.0000 -0.0536
vn -0.9987 0.0000 -0.0508
vn 0.4494 -0.8786 0.1615
vn 0.4958 -0.8441 0.2040
vn 0.4363 -0.8873 0.1498
vn 0.9458 0.0000 0.3247
vn -0.4731 0.0000 0.8810
vn 0.4419 0.8789 0.1798
vn 0.5421 0.8194 0.1861
vn 0.8810 0.0000 -0.4731
vn -0.4838 -0.8588 0.1687
vn -0.5313 -0.8191 0.2164
vn -0.5445 -0.8065 0.2301
vn -0.9506 0.0000 0.3105
vn 0.4494 0.0000 0.8933
vn -0.8933 0.0000 -0.4494
vn -0.4838 0.8588 0.1687
vn -0.5313 0.8191 0.2164
vn -0.4674 0.8708 0.1527
vn 0.9854 0.1338 -0.1051
vn 0.9807 0.1076 -0.1636
vn 0.9765 0.0935 -0.1942
vn 0.2720 0.3491 0.8967
vn -0.2698 0.3687 0.8895
vn 0.9591 0.1962 0.2039
vn 0.9159 0.2495 0.3144
vn 0.8884 0.2746 0.3680
vn -0.9743 0.1149 -0.1938
vn -0.8944 0.2505 0.3705
vn 0.5068 -0.8350 0.2142
vn -0.4674 -0.8708 0.1527
vn -0.5445 0.8065 0.2301
vn 0.9857 0.1365 -0.0988
vn 0.9619 0.1917 0.1948
vn -0.3506 0.0000 0.9365
vn -0.9967 0.0000 0.0808
vn 0.3506 0.0000 -0.9365
vn 0.6707 0.0000 -0.7417
vn 0.9093 0.0000 -0.4162
vn 0.9968 0.0000 -0.0805
vn 0.9093 0.0000 0.4162
vn 0.9964 0.0000 0.0847
vn 0.6707 0.0000 0.7417
vn 0.3506 0.0000 0.9365
vn -0.9964 0.0000 -0.0844
vn -0.9093 0.0000 -0.4162
vn -0.6707 0.0000 -0.7417
vn -0.3506 0.0000 -0.9365
s 1
f 2/1/1 3/2/2 1/3/1
f 6/4/3 7/5/4 5/6/5
f 8/7/6 9/8/7 7/9/4
f 10/10/7 11/11/8 9/8/7
f 12/12/9 13/13/10 11/14/8
f 16/15/11 17/16/12 15/17/11
f 2/18/13 29/19/13 21/20/13
f 28/21/14 31/22/15 32/23/15
f 25/24/16 24/25/17 26/26/18
f 23/27/17 34/28/19 24/25/17
f 34/29/19 19/30/20 20/31/21
f 21/32/22 30/33/23 22/34/22
f 36/35/24 25/36/16 26/37/18
f 2/1/1 4/38/2 3/2/2
f 6/4/3 8/39/6 7/5/4
f 8/7/6 10/10/7 9/8/7
f 10/10/7 12/40/9 11/11/8
f 12/12/9 14/41/25 13/13/10
f 16/15/11 18/42/12 17/16/12
f 4/43/13 2/18/13 21/20/13
f 6/4/3 97/44/26 8/39/6
f 12/45/13 10/46/13 25/47/13
f 10/46/13 8/48/13 23/49/13
f 25/47/13 10/46/13 23/49/13
f 12/12/9 101/50/27 14/41/25
f 27/51/28 18/52/29 16/53/13
f 31/54/13 27/51/28 16/53/13
f 25/55/30 102/56/31 12/57/32
f 33/58/13 23/49/13 8/48/13
f 19/59/33 98/60/34 6/61/35
f 1/62/36 3/63/36 22/64/36
f 5/65/36 7/66/36 20/67/36
f 7/66/36 9/68/36 24/69/36
f 9/68/36 11/70/36 26/71/36
f 11/70/36 13/72/36 26/71/36
f 26/71/36 13/72/36 36/73/36
f 15/74/36 17/75/36 28/76/36
f 15/74/36 28/76/36 32/77/36
f 9/68/36 26/71/36 24/69/36
f 1/62/36 22/64/36 30/78/36
f 7/66/36 24/69/36 34/79/36
f 7/66/36 34/79/36 20/67/36
f 28/21/14 27/80/14 31/22/15
f 25/24/16 23/27/17 24/25/17
f 23/27/17 33/81/37 34/28/19
f 34/29/19 33/82/37 19/30/20
f 21/32/22 29/83/23 30/33/23
f 36/35/24 35/84/38 25/36/16
f 43/85/39 41/86/40 42/87/40
f 80/88/41 79/89/41 87/90/42
f 77/91/13 85/92/13 81/93/13
f 82/94/43 81/95/43 85/96/43
f 83/97/44 84/98/44 88/99/44
f 75/100/45 76/101/45 84/102/46
f 79/103/13 75/100/13 83/104/13
f 78/105/36 74/106/36 82/107/36
f 77/108/47 78/109/47 86/110/48
f 74/106/49 73/111/49 81/93/50
f 80/112/36 88/113/36 84/102/36
f 28/76/51 90/114/52 92/115/53
f 89/116/54 92/117/54 90/118/54
f 28/21/14 91/119/55 27/80/14
f 18/52/29 91/120/56 89/121/57
f 18/42/12 90/122/58 17/16/12
f 30/78/59 93/123/60 1/62/61
f 93/124/62 96/125/62 94/126/62
f 29/83/23 95/127/63 30/33/23
f 1/3/1 94/128/64 2/1/1
f 29/19/65 94/129/66 96/130/67
f 97/131/13 98/132/13 100/133/13
f 100/133/13 99/134/13 97/131/13
f 33/135/68 97/136/69 99/137/70
f 33/82/37 100/138/71 19/30/20
f 101/139/13 102/140/13 104/141/13
f 101/139/13 104/141/13 103/142/13
f 35/84/38 104/143/72 25/36/16
f 35/144/73 101/145/74 103/146/75
f 6/4/3 98/147/26 97/44/26
f 12/12/9 102/148/27 101/50/27
f 25/55/30 104/149/76 102/56/31
f 19/59/33 100/150/77 98/60/34
f 43/85/39 42/87/40 44/151/39
f 80/88/41 87/90/42 88/152/42
f 77/91/13 81/93/13 73/111/13
f 82/94/43 85/96/43 86/153/43
f 83/97/44 88/99/44 87/154/44
f 75/100/45 84/102/46 83/104/46
f 79/103/13 83/104/13 87/155/13
f 78/105/36 82/107/36 86/156/36
f 77/108/47 86/110/48 85/157/48
f 74/106/49 81/93/50 82/107/50
f 80/112/36 84/102/36 76/101/36
f 28/76/51 17/75/78 90/114/52
f 89/116/54 91/158/54 92/117/54
f 28/21/14 92/159/55 91/119/55
f 18/52/29 27/51/28 91/120/56
f 18/42/12 89/160/58 90/122/58
f 30/78/59 95/161/79 93/123/60
f 93/124/62 95/162/62 96/125/62
f 29/83/23 96/163/63 95/127/63
f 1/3/1 93/164/64 94/128/64
f 29/19/65 2/18/80 94/129/66
f 33/135/68 8/165/81 97/136/69
f 33/82/37 99/166/71 100/138/71
f 35/84/38 103/167/72 104/143/72
f 35/144/73 14/168/82 101/145/74
f 4/38/2 5/169/5 3/2/2
f 14/170/25 15/17/11 13/171/10
f 32/23/15 35/172/38 36/173/24
f 19/174/20 22/34/22 20/175/21
f 4/38/2 6/176/3 5/169/5
f 14/170/25 16/15/11 15/17/11
f 6/177/13 4/43/13 19/178/13
f 19/178/13 4/43/13 21/20/13
f 16/53/13 14/179/13 35/180/13
f 35/180/13 31/54/13 16/53/13
f 3/63/36 5/65/36 20/67/36
f 13/72/36 15/74/36 36/73/36
f 15/74/36 32/77/36 36/73/36
f 3/63/36 20/67/36 22/64/36
f 32/23/15 31/22/15 35/172/38
f 19/174/20 21/32/22 22/34/22
f 39/181/83 37/182/17 38/183/17
f 41/86/40 39/181/83 40/184/83
f 45/185/84 43/85/39 44/151/39
f 56/186/7 55/187/7 57/188/85
f 58/189/85 57/188/85 59/190/86
f 60/191/86 59/190/86 61/192/87
f 62/193/87 61/192/87 63/194/88
f 40/184/13 38/183/13 56/195/13
f 45/185/36 63/196/36 61/197/36
f 46/198/13 44/151/13 62/199/13
f 41/86/36 59/200/36 57/201/36
f 64/202/88 63/194/88 78/109/47
f 42/87/13 40/184/13 58/203/13
f 64/204/13 77/91/13 73/111/13
f 43/85/36 61/197/36 59/200/36
f 39/181/36 57/201/36 55/205/36
f 44/151/13 42/87/13 60/206/13
f 63/196/36 45/185/36 74/106/36
f 45/185/84 46/198/84 73/111/49
f 39/181/83 38/183/17 40/184/83
f 41/86/40 40/184/83 42/87/40
f 45/185/84 44/151/39 46/198/84
f 56/186/7 57/188/85 58/189/85
f 58/189/85 59/190/86 60/191/86
f 60/191/86 61/192/87 62/193/87
f 62/193/87 63/194/88 64/202/88
f 40/184/13 56/195/13 58/203/13
f 45/185/36 61/197/36 43/85/36
f 46/198/13 62/199/13 64/204/13
f 41/86/36 57/201/36 39/181/36
f 64/202/88 78/109/47 77/108/47
f 42/87/13 58/203/13 60/206/13
f 64/204/13 73/111/13 46/198/13
f 43/85/36 59/200/36 41/86/36
f 39/181/36 55/205/36 37/182/36
f 44/151/13 60/206/13 62/199/13
f 63/196/36 74/106/36 78/105/36
f 45/185/84 73/111/49 74/106/49
f 49/207/89 47/208/90 48/209/90
f 51/210/91 49/207/89 50/211/89
f 53/212/92 51/210/91 52/213/91
f 37/182/17 53/212/92 54/214/92
f 66/215/93 65/216/93 67/217/94
f 68/218/94 67/217/94 69/219/95
f 70/220/95 69/219/95 71/221/96
f 72/222/96 71/221/96 55/187/7
f 54/214/13 72/223/13 56/195/13
f 49/207/36 51/210/36 69/224/36
f 50/211/13 68/225/13 70/226/13
f 51/210/36 53/212/36 71/227/36
f 52/213/13 70/226/13 72/223/13
f 47/208/36 49/207/36 67/228/36
f 48/209/13 66/229/13 68/225/13
f 53/212/36 37/182/36 55/205/36
f 48/209/90 47/208/90 76/101/45
f 65/230/36 80/112/36 76/101/36
f 65/216/93 66/215/93 79/89/41
f 66/229/13 48/209/13 75/100/13
f 49/207/89 48/209/90 50/211/89
f 51/210/91 50/211/89 52/213/91
f 53/212/92 52/213/91 54/214/92
f 37/182/17 54/214/92 38/183/17
f 66/215/93 67/217/94 68/218/94
f 68/218/94 69/219/95 70/220/95
f 70/220/95 71/221/96 72/222/96
f 72/222/96 55/187/7 56/186/7
f 54/214/13 56/195/13 38/183/13
f 49/207/36 69/224/36 67/228/36
f 50/211/13 70/226/13 52/213/13
f 51/210/36 71/227/36 69/224/36
f 52/213/13 72/223/13 54/214/13
f 47/208/36 67/228/36 65/230/36
f 48/209/13 68/225/13 50/211/13
f 53/212/36 55/205/36 71/227/36
f 48/209/90 76/101/45 75/100/45
f 65/230/36 76/101/36 47/208/36
f 65/216/93 79/89/41 80/88/41
f 66/229/13 75/100/13 79/103/13
