# Blender v2.93.0 OBJ File: 'TruckShip.blend'
# www.blender.org
o Crane_Cube.002
v -0.094698 0.326667 1.034310
v -0.094698 0.514929 1.013612
v 0.160278 0.124509 -0.055739
v -0.160278 0.443146 -0.090770
v 0.094698 0.326667 1.034310
v 0.094698 0.514929 1.013612
v 0.160278 0.443146 -0.090770
v -0.160278 0.124509 -0.055739
v -0.133758 0.287841 1.038579
v -0.133758 0.553755 1.009343
v 0.133758 0.553755 1.009343
v 0.133758 0.287841 1.038579
v -0.094698 0.426076 1.938505
v -0.094698 0.614339 1.917807
v 0.094698 0.614339 1.917807
v 0.094698 0.426076 1.938505
v -0.163386 0.092459 -0.315299
v -0.163386 0.417274 -0.351010
v 0.163386 0.092459 -0.315299
v 0.163386 0.417274 -0.351010
v -0.202384 0.459619 -0.357324
v -0.206372 0.426422 -0.643440
v -0.206372 0.016150 -0.598334
v 0.206372 0.016150 -0.598334
v 0.206372 0.426422 -0.643440
v 0.202384 0.057275 -0.313089
v -0.202384 0.057275 -0.313089
v 0.202384 0.459619 -0.357324
v -0.152213 0.207672 0.617757
v 0.152213 0.207672 0.617757
v -0.152213 0.510276 0.584488
v 0.152213 0.510276 0.584488
v -0.167600 -0.163185 0.827726
v 0.167600 -0.163185 0.827726
v 0.176480 -0.183865 0.168969
v -0.176480 -0.183865 0.168969
v -0.100519 0.129936 0.075742
v -0.095461 0.180788 0.498209
v 0.100519 0.129936 0.075742
v 0.095461 0.180788 0.498209
v -0.089905 -0.023246 0.189625
v 0.089905 -0.023246 0.189625
v 0.085381 0.002421 0.568714
v -0.085381 0.002420 0.568714
v 0.157085 -0.358024 0.678177
v 0.165408 -0.359027 0.171264
v -0.165408 -0.359027 0.171264
v -0.157085 -0.358024 0.678177
v -0.187551 -0.039473 -0.066308
v 0.187551 -0.039473 -0.066308
v 0.178114 0.080008 0.832213
v -0.178114 0.080008 0.832212
v -0.144998 0.369900 1.948467
v -0.144998 0.658158 1.916775
v 0.144998 0.658158 1.916775
v 0.144998 0.369900 1.948467
v -0.144998 0.405521 2.272467
v -0.144998 0.693779 2.240775
v 0.144998 0.693779 2.240775
v 0.144998 0.405521 2.272467
v -0.142986 0.247757 0.828168
v 0.142986 0.532015 0.796916
v 0.142986 0.247757 0.828168
v -0.142986 0.532015 0.796916
vt 0.245714 0.330822
vt 0.141422 0.330822
vt 0.139015 0.098315
vt 0.248832 0.098315
vt 0.369339 0.081911
vt 0.271370 0.081911
vt 0.271954 0.008709
vt 0.363600 0.008709
vt 0.685543 0.008709
vt 0.750436 0.008709
vt 0.750436 0.320363
vt 0.685543 0.320363
vt 0.015698 0.404072
vt 0.113681 0.404072
vt 0.110519 0.477314
vt 0.018860 0.477314
vt 0.403804 0.403901
vt 0.501787 0.403901
vt 0.498625 0.477054
vt 0.406966 0.477054
vt 0.763814 0.870004
vt 0.698925 0.870004
vt 0.685543 0.856621
vt 0.777196 0.856621
vt 0.698925 0.934897
vt 0.763814 0.934897
vt 0.777196 0.948280
vt 0.685543 0.948280
vt 0.396815 0.494471
vt 0.461698 0.494488
vt 0.461698 0.806122
vt 0.396815 0.806105
vt 0.685543 0.337780
vt 0.750436 0.337780
vt 0.750436 0.649414
vt 0.685543 0.649414
vt 0.348910 0.806278
vt 0.284026 0.806294
vt 0.284026 0.494660
vt 0.348910 0.494644
vt 0.138088 0.008709
vt 0.250034 0.008709
vt 0.396815 0.008709
vt 0.508777 0.008709
vt 0.507712 0.098295
vt 0.397879 0.098295
vt 0.008709 0.008709
vt 0.120671 0.008709
vt 0.119606 0.098317
vt 0.009773 0.098317
vt 0.379397 0.477227
vt 0.267451 0.477226
vt 0.268379 0.387620
vt 0.378195 0.387620
vt 0.504948 0.330749
vt 0.400643 0.330749
vt 0.889908 0.307414
vt 0.767853 0.307414
vt 0.771456 0.224886
vt 0.886305 0.224886
vt 0.270786 0.155113
vt 0.375077 0.155113
vt 0.171544 0.582369
vt 0.173094 0.712376
vt 0.141321 0.805190
vt 0.138088 0.494644
vt 0.231602 0.712376
vt 0.233152 0.582369
vt 0.266609 0.494644
vt 0.263376 0.805190
vt 0.116843 0.330829
vt 0.012537 0.330829
vt 0.031982 0.289040
vt 0.097398 0.289040
vt 0.099131 0.143247
vt 0.030249 0.143247
vt 0.987533 0.008709
vt 0.987533 0.074125
vt 0.923947 0.070671
vt 0.923947 0.012162
vt 0.970934 0.164812
vt 0.970934 0.310616
vt 0.907325 0.327343
vt 0.914115 0.197328
vt 0.991291 0.666831
vt 0.991291 0.735713
vt 0.933072 0.732076
vt 0.933072 0.670468
vt 0.947568 0.500394
vt 0.947568 0.646199
vt 0.890750 0.613683
vt 0.883959 0.483667
vt 0.685543 0.666831
vt 0.798891 0.666831
vt 0.796039 0.839204
vt 0.688395 0.839204
vt 0.668126 0.336709
vt 0.668126 0.647293
vt 0.585678 0.634835
vt 0.608416 0.410141
vt 0.284026 0.952233
vt 0.284026 0.823712
vt 0.357846 0.827505
vt 0.357846 0.948440
vt 0.668126 0.008709
vt 0.668126 0.319292
vt 0.608416 0.245860
vt 0.585678 0.021167
vt 0.234237 0.477227
vt 0.142591 0.477227
vt 0.142007 0.404024
vt 0.239975 0.404024
vt 0.891866 0.022070
vt 0.779912 0.022070
vt 0.767853 0.008709
vt 0.906530 0.008709
vt 0.779912 0.134033
vt 0.767853 0.147394
vt 0.891866 0.134033
vt 0.906530 0.147394
vt 0.008709 0.633398
vt 0.008709 0.494731
vt 0.107406 0.495327
vt 0.107406 0.636725
vt 0.667385 0.806129
vt 0.526194 0.806129
vt 0.526194 0.664710
vt 0.667385 0.664710
vt 0.767853 0.625086
vt 0.767853 0.483667
vt 0.866542 0.485033
vt 0.866542 0.623719
vt 0.767853 0.466250
vt 0.767853 0.324831
vt 0.866581 0.326198
vt 0.866581 0.464883
vt 0.008709 0.796136
vt 0.008709 0.654738
vt 0.107406 0.654142
vt 0.107406 0.792809
vt 0.548762 0.252938
vt 0.526194 0.080703
vt 0.883998 0.466250
vt 0.883998 0.345315
vt 0.943316 0.349109
vt 0.943316 0.462456
vt 0.526194 0.575298
vt 0.548762 0.403063
vt 0.775058 0.164812
vt 0.882703 0.164811
vt 0.541059 0.905673
vt 0.605847 0.905673
vt 0.625395 0.922907
vt 0.526194 0.922907
vt 0.605847 0.840780
vt 0.625395 0.823546
vt 0.541059 0.840780
vt 0.526194 0.823546
vt 0.008709 0.813554
vt 0.108070 0.813554
vt 0.108070 0.925229
vt 0.008709 0.925229
vt 0.496169 0.922900
vt 0.396815 0.922900
vt 0.396815 0.823539
vt 0.496169 0.823539
vt 0.816308 0.795942
vt 0.915655 0.795968
vt 0.915655 0.907635
vt 0.816308 0.907609
vt 0.138088 0.822608
vt 0.237449 0.822608
vt 0.237449 0.934275
vt 0.138088 0.934275
vt 0.915655 0.778499
vt 0.816308 0.778525
vt 0.816308 0.666857
vt 0.915655 0.666831
vn -0.9999 0.0013 0.0118
vn 0.9991 0.0047 0.0429
vn 0.0000 0.9940 -0.1093
vn -0.0000 -0.9823 0.1871
vn 0.0000 0.9948 -0.1018
vn 0.0000 0.1093 0.9940
vn 1.0000 0.0000 0.0000
vn 0.0000 -0.9940 0.1093
vn -1.0000 0.0000 0.0000
vn -0.0000 0.9951 -0.0989
vn -0.0000 -0.9925 0.1225
vn 0.9999 0.0013 0.0118
vn 0.0000 -0.0184 0.9998
vn -0.3009 0.9472 -0.1109
vn 0.3009 0.9472 -0.1109
vn -0.0000 0.9593 -0.2825
vn 0.0000 0.9980 -0.0633
vn 0.0000 -0.9756 0.2194
vn 0.1918 -0.9739 0.1214
vn -0.0000 -0.9991 0.0412
vn -0.1918 -0.9739 0.1214
vn -0.0000 0.3676 0.9300
vn 0.9985 -0.0529 0.0170
vn 0.0000 -0.5966 -0.8025
vn -0.9985 -0.0529 0.0170
vn -0.0000 -1.0000 0.0020
vn 0.9988 -0.0462 0.0159
vn 0.0000 -0.8523 -0.5231
vn -0.9988 -0.0462 0.0159
vn -0.9991 0.0047 0.0429
vn 0.0422 0.1092 0.9931
vn -0.0000 0.0627 0.9980
vn -0.0422 0.1092 0.9931
vn 0.0000 0.1475 0.9891
vn -0.9999 0.0015 0.0138
vn 0.0000 -0.1093 -0.9940
vn 0.0000 0.9933 -0.1153
vn 0.0000 -0.9898 0.1427
vn 0.9999 0.0015 0.0138
vn -0.9978 -0.0645 0.0159
vn 0.0000 -0.0131 -0.9999
vn 0.9978 -0.0645 0.0159
vn 0.0000 -0.6089 0.7933
vn -0.0746 -0.1090 -0.9912
vn 0.0000 -0.1746 -0.9846
vn 0.0746 -0.1090 -0.9912
vn 0.0000 -0.0235 -0.9997
s off
f 29/1/1 31/2/1 4/3/1 8/4/1
f 63/5/2 62/6/2 11/7/2 12/8/2
f 6/9/3 2/10/3 14/11/3 15/12/3
f 61/13/4 63/14/4 12/15/4 9/16/4
f 62/17/5 64/18/5 10/19/5 11/20/5
f 1/21/6 2/22/6 10/23/6 9/24/6
f 6/25/6 5/26/6 12/27/6 11/28/6
f 5/26/6 1/21/6 9/24/6 12/27/6
f 2/22/6 6/25/6 11/28/6 10/23/6
f 5/29/7 6/30/7 15/31/7 16/32/7
f 1/33/8 5/34/8 16/35/8 13/36/8
f 2/37/9 1/38/9 13/39/9 14/40/9
f 8/4/1 4/3/1 18/41/1 17/42/1
f 20/43/10 18/44/10 4/45/10 7/46/10
f 17/47/11 19/48/11 3/49/11 8/50/11
f 19/51/12 20/52/12 7/53/12 3/54/12
f 7/46/10 4/45/10 31/55/10 32/56/10
f 51/57/13 52/58/13 33/59/13 34/60/13
f 3/54/12 7/53/12 32/61/12 30/62/12
f 42/63/14 43/64/14 51/65/14 50/66/14
f 44/67/15 41/68/15 49/69/15 52/70/15
f 43/64/16 44/67/16 52/70/16 51/65/16
f 41/68/17 42/63/17 50/66/17 49/69/17
f 30/71/18 29/72/18 38/73/18 40/74/18
f 3/49/19 30/71/19 40/74/19 39/75/19
f 8/50/20 3/49/20 39/75/20 37/76/20
f 29/72/21 8/50/21 37/76/21 38/73/21
f 40/77/22 38/78/22 44/79/22 43/80/22
f 39/81/23 40/82/23 43/83/23 42/84/23
f 37/85/24 39/86/24 42/87/24 41/88/24
f 38/89/25 37/90/25 41/91/25 44/92/25
f 47/93/26 46/94/26 45/95/26 48/96/26
f 50/97/27 51/98/27 34/99/27 35/100/27
f 49/101/28 50/102/28 35/103/28 36/104/28
f 52/105/29 49/106/29 36/107/29 33/108/29
f 9/109/30 10/110/30 64/111/30 61/112/30
f 20/113/31 19/114/31 26/115/31 28/116/31
f 19/114/32 17/117/32 27/118/32 26/115/32
f 17/117/33 18/119/33 21/120/33 27/118/33
f 18/119/34 20/113/34 28/116/34 21/120/34
f 27/121/35 21/122/35 22/123/35 23/124/35
f 23/125/36 22/126/36 25/127/36 24/128/36
f 25/129/37 22/130/37 21/131/37 28/132/37
f 23/133/38 24/134/38 26/135/38 27/136/38
f 24/137/39 25/138/39 28/139/39 26/140/39
f 61/112/30 64/111/30 31/2/30 29/1/30
f 33/108/40 36/107/40 47/141/40 48/142/40
f 36/143/41 35/144/41 46/145/41 47/146/41
f 35/100/42 34/99/42 45/147/42 46/148/42
f 34/60/43 33/59/43 48/149/43 45/150/43
f 14/151/44 13/152/44 53/153/44 54/154/44
f 13/152/45 16/155/45 56/156/45 53/153/45
f 16/155/46 15/157/46 55/158/46 56/156/46
f 15/157/47 14/151/47 54/154/47 55/158/47
f 55/159/3 54/160/3 58/161/3 59/162/3
f 60/163/6 59/164/6 58/165/6 57/166/6
f 56/167/7 55/168/7 59/169/7 60/170/7
f 53/171/8 56/172/8 60/173/8 57/174/8
f 54/175/9 53/176/9 57/177/9 58/178/9
f 32/56/5 31/55/5 64/18/5 62/17/5
f 29/72/4 30/71/4 63/14/4 61/13/4
f 30/62/2 32/61/2 62/6/2 63/5/2
